<?xml version="1.0" encoding="UTF-8"?>
<svg id="_Слой_1" data-name="Слой 1" xmlns="http://www.w3.org/2000/svg" viewBox="0 0 233.5 49.96">
  <defs>
    <style>
      .cls-1 {
        fill: #fff;
      }

      .cls-2 {
        fill: #fb8c00;
      }
    </style>
  </defs>
  <g id="_Слой_11" data-name=" Слой 11">
    <path class="cls-2" d="M11.18,21.65s1.08-6.05,7.79-8.35c1.32-.46,2.72-.63,4.11-.63h16.74v-4.26h-16.97c-2.02,0-4.04.4-5.85,1.32-3.04,1.55-6.47,4.86-5.82,11.93h0Z"/>
    <path class="cls-2" d="M23.97,21.24c-3.48,0-6.29,2.82-6.29,6.29s2.82,6.29,6.29,6.29,6.29-2.82,6.29-6.29h4.57c0,5.99-4.86,10.86-10.86,10.86s-10.86-4.86-10.86-10.86,4.86-10.86,10.86-10.86h11.15v4.53s-11.15.04-11.15.04Z"/>
  </g>
  <g>
    <path class="cls-1" d="M44.4,16.48l6.19,9.8,6.22-9.8h3.93v20.82h-3.75v-15.07l-5.6,8.9h-1.61l-5.57-8.9v15.07h-3.75v-20.82h3.93Z"/>
    <path class="cls-1" d="M79.27,29.55c0,.36-.03.71-.09,1.04h-11.67c0,1.25.43,2.27,1.28,3.05.85.78,2.04,1.18,3.57,1.18,1.73,0,3.23-.49,4.5-1.46l1.37,2.2c-1.61,1.45-3.71,2.17-6.31,2.17-2.24,0-4.14-.73-5.7-2.2-1.56-1.47-2.34-3.3-2.34-5.48s.75-4.15,2.26-5.73c1.51-1.58,3.34-2.37,5.51-2.37,2.36,0,4.22.7,5.58,2.11,1.36,1.41,2.04,3.24,2.04,5.48ZM75.9,28.27c-.2-1.01-.67-1.83-1.4-2.46-.73-.62-1.69-.94-2.86-.94-1.03,0-1.92.3-2.67.91-.75.61-1.25,1.43-1.5,2.49h8.43Z"/>
    <path class="cls-1" d="M87.1,25.35v6.7c0,.87.21,1.51.62,1.92.42.41.94.61,1.58.61.87,0,1.71-.17,2.5-.51v2.8c-.95.42-2.14.63-3.57.63-3.12,0-4.67-1.68-4.67-5.03v-7.12h-2.95v-2.95h2.95v-3.48h3.54v3.48h4.67v2.95h-4.67Z"/>
    <path class="cls-1" d="M98.5,37.74c-1.59,0-2.83-.37-3.74-1.1-.9-.73-1.35-1.78-1.35-3.13,0-.71.12-1.35.37-1.91.25-.56.63-1.01,1.16-1.35s1.08-.64,1.65-.88c.58-.24,1.3-.41,2.17-.52.87-.11,1.68-.19,2.43-.24.74-.05,1.63-.08,2.67-.1v-.98c0-1.87-1.06-2.8-3.19-2.8-1.77,0-3.36.58-4.76,1.73l-1.82-2.08c1.83-1.61,4.09-2.41,6.79-2.41,2.28,0,3.95.47,4.99,1.41,1.04.94,1.56,2.18,1.56,3.71v10.21h-3.57v-2.41c-1.55,1.91-3.33,2.86-5.36,2.86ZM99.7,35.15c1.59,0,2.98-.89,4.17-2.68v-2c-1.85.04-3.17.14-3.96.3-.65.12-1.26.38-1.8.77-.55.4-.82.94-.82,1.64,0,.65.23,1.15.7,1.47.47.33,1.04.49,1.71.49Z"/>
    <path class="cls-1" d="M124.32,25.38v3.66h-9.02v8.25h-4.05v-20.85h14.06v3.66h-10.01v5.27h9.02Z"/>
    <path class="cls-1" d="M128.63,19.95c-.39-.39-.58-.86-.58-1.41s.19-1.03.58-1.43c.39-.4.86-.6,1.41-.6s1.03.2,1.43.6c.4.4.6.87.6,1.43s-.2,1.03-.6,1.41c-.4.39-.87.58-1.43.58s-1.03-.19-1.41-.58ZM128.28,37.3v-14.89h3.54v14.89h-3.54Z"/>
    <path class="cls-1" d="M140.61,25.35v6.7c0,.87.21,1.51.62,1.92.42.41.94.61,1.58.61.87,0,1.71-.17,2.5-.51v2.8c-.95.42-2.14.63-3.57.63-3.12,0-4.67-1.68-4.67-5.03v-7.12h-2.95v-2.95h2.95v-3.48h3.54v3.48h4.67v2.95h-4.67Z"/>
    <path class="cls-1" d="M158.66,37.3v-8.4c0-1.07-.25-1.92-.74-2.55-.5-.62-1.19-.94-2.08-.94-.75,0-1.58.26-2.47.77-.89.52-1.58,1.23-2.05,2.14v8.96h-3.54v-14.89h3.54v2.23c1.35-1.75,3.21-2.62,5.57-2.62,1.57,0,2.85.53,3.84,1.59.99,1.06,1.49,2.53,1.49,4.39v9.29h-3.54Z"/>
    <path class="cls-1" d="M180.19,29.55c0,.36-.03.71-.09,1.04h-11.67c0,1.25.43,2.27,1.28,3.05.85.78,2.04,1.18,3.57,1.18,1.73,0,3.23-.49,4.5-1.46l1.37,2.2c-1.61,1.45-3.71,2.17-6.31,2.17-2.24,0-4.14-.73-5.7-2.2-1.56-1.47-2.34-3.3-2.34-5.48s.75-4.15,2.26-5.73,3.35-2.37,5.51-2.37c2.36,0,4.22.7,5.58,2.11,1.36,1.41,2.04,3.24,2.04,5.48ZM176.82,28.27c-.2-1.01-.67-1.83-1.4-2.46-.73-.62-1.69-.94-2.86-.94-1.03,0-1.92.3-2.67.91-.74.61-1.25,1.43-1.5,2.49h8.43Z"/>
    <path class="cls-1" d="M191.29,33.04c0-.46-.21-.82-.64-1.09s-.96-.46-1.59-.57c-.64-.11-1.32-.26-2.05-.46-.74-.2-1.42-.43-2.05-.7-.64-.27-1.17-.72-1.59-1.35s-.64-1.43-.64-2.38c0-1.27.51-2.34,1.52-3.22,1.01-.87,2.47-1.31,4.38-1.31,2.22,0,4.13.75,5.72,2.26l-1.64,2.17c-1.25-1.13-2.61-1.7-4.08-1.7-.75,0-1.38.16-1.88.48-.5.32-.74.73-.74,1.25s.3.92.89,1.21c.6.29,1.31.52,2.16.7.84.18,1.69.39,2.55.64.85.25,1.58.7,2.17,1.34s.89,1.47.89,2.49c0,1.51-.55,2.71-1.64,3.6-1.09.89-2.62,1.34-4.59,1.34-2.46,0-4.61-.79-6.43-2.38l1.61-2.26c1.57,1.29,3.18,1.94,4.82,1.94.87,0,1.57-.18,2.08-.55.52-.37.77-.85.77-1.44Z"/>
    <path class="cls-1" d="M205.8,33.04c0-.46-.21-.82-.64-1.09s-.96-.46-1.59-.57c-.64-.11-1.32-.26-2.05-.46-.74-.2-1.42-.43-2.05-.7-.64-.27-1.17-.72-1.59-1.35s-.64-1.43-.64-2.38c0-1.27.51-2.34,1.52-3.22,1.01-.87,2.47-1.31,4.38-1.31,2.22,0,4.13.75,5.72,2.26l-1.64,2.17c-1.25-1.13-2.61-1.7-4.08-1.7-.75,0-1.38.16-1.88.48-.5.32-.74.73-.74,1.25s.3.92.89,1.21c.6.29,1.31.52,2.16.7.84.18,1.69.39,2.55.64.85.25,1.58.7,2.17,1.34s.89,1.47.89,2.49c0,1.51-.55,2.71-1.64,3.6-1.09.89-2.62,1.34-4.59,1.34-2.46,0-4.61-.79-6.43-2.38l1.61-2.26c1.57,1.29,3.18,1.94,4.82,1.94.87,0,1.57-.18,2.08-.55.52-.37.77-.85.77-1.44Z"/>
  </g>
</svg>